<mxfile host="Electron" agent="Mozilla/5.0 (X11; Linux x86_64) AppleWebKit/537.36 (KHTML, like Gecko) draw.io/24.7.8 Chrome/128.0.6613.36 Electron/32.0.1 Safari/537.36" version="24.7.8">
  <diagram name="Page-1" id="2YBvvXClWsGukQMizWep">
    <mxGraphModel dx="1061" dy="795" grid="1" gridSize="10" guides="1" tooltips="1" connect="1" arrows="1" fold="1" page="1" pageScale="1" pageWidth="850" pageHeight="1100" math="0" shadow="0">
      <root>
        <mxCell id="0" />
        <mxCell id="1" parent="0" />
        <mxCell id="aM9ryv3xv72pqoxQDRHE-1" value="UI" style="shape=umlLifeline;perimeter=lifelinePerimeter;whiteSpace=wrap;html=1;container=0;dropTarget=0;collapsible=0;recursiveResize=0;outlineConnect=0;portConstraint=eastwest;newEdgeStyle={&quot;edgeStyle&quot;:&quot;elbowEdgeStyle&quot;,&quot;elbow&quot;:&quot;vertical&quot;,&quot;curved&quot;:0,&quot;rounded&quot;:0};" parent="1" vertex="1">
          <mxGeometry x="370" y="180" width="100" height="670" as="geometry" />
        </mxCell>
        <mxCell id="aM9ryv3xv72pqoxQDRHE-2" value="" style="html=1;points=[];perimeter=orthogonalPerimeter;outlineConnect=0;targetShapes=umlLifeline;portConstraint=eastwest;newEdgeStyle={&quot;edgeStyle&quot;:&quot;elbowEdgeStyle&quot;,&quot;elbow&quot;:&quot;vertical&quot;,&quot;curved&quot;:0,&quot;rounded&quot;:0};" parent="aM9ryv3xv72pqoxQDRHE-1" vertex="1">
          <mxGeometry x="45" y="70" width="10" height="530" as="geometry" />
        </mxCell>
        <mxCell id="_mBmZssn0w3ArqIE2nXV-8" value="ORDER MANAGEMENT" style="shape=umlLifeline;perimeter=lifelinePerimeter;whiteSpace=wrap;html=1;container=0;dropTarget=0;collapsible=0;recursiveResize=0;outlineConnect=0;portConstraint=eastwest;newEdgeStyle={&quot;edgeStyle&quot;:&quot;elbowEdgeStyle&quot;,&quot;elbow&quot;:&quot;vertical&quot;,&quot;curved&quot;:0,&quot;rounded&quot;:0};" vertex="1" parent="1">
          <mxGeometry x="630" y="180" width="100" height="680" as="geometry" />
        </mxCell>
        <mxCell id="_mBmZssn0w3ArqIE2nXV-9" value="" style="html=1;points=[];perimeter=orthogonalPerimeter;outlineConnect=0;targetShapes=umlLifeline;portConstraint=eastwest;newEdgeStyle={&quot;edgeStyle&quot;:&quot;elbowEdgeStyle&quot;,&quot;elbow&quot;:&quot;vertical&quot;,&quot;curved&quot;:0,&quot;rounded&quot;:0};" vertex="1" parent="_mBmZssn0w3ArqIE2nXV-8">
          <mxGeometry x="45" y="80" width="10" height="520" as="geometry" />
        </mxCell>
        <mxCell id="_mBmZssn0w3ArqIE2nXV-10" value="HOTEL SERVICE" style="shape=umlLifeline;perimeter=lifelinePerimeter;whiteSpace=wrap;html=1;container=0;dropTarget=0;collapsible=0;recursiveResize=0;outlineConnect=0;portConstraint=eastwest;newEdgeStyle={&quot;edgeStyle&quot;:&quot;elbowEdgeStyle&quot;,&quot;elbow&quot;:&quot;vertical&quot;,&quot;curved&quot;:0,&quot;rounded&quot;:0};" vertex="1" parent="1">
          <mxGeometry x="820" y="180" width="100" height="680" as="geometry" />
        </mxCell>
        <mxCell id="_mBmZssn0w3ArqIE2nXV-11" value="" style="html=1;points=[];perimeter=orthogonalPerimeter;outlineConnect=0;targetShapes=umlLifeline;portConstraint=eastwest;newEdgeStyle={&quot;edgeStyle&quot;:&quot;elbowEdgeStyle&quot;,&quot;elbow&quot;:&quot;vertical&quot;,&quot;curved&quot;:0,&quot;rounded&quot;:0};" vertex="1" parent="_mBmZssn0w3ArqIE2nXV-10">
          <mxGeometry x="45" y="80" width="10" height="520" as="geometry" />
        </mxCell>
        <mxCell id="_mBmZssn0w3ArqIE2nXV-12" value="BIKE SERVICE" style="shape=umlLifeline;perimeter=lifelinePerimeter;whiteSpace=wrap;html=1;container=0;dropTarget=0;collapsible=0;recursiveResize=0;outlineConnect=0;portConstraint=eastwest;newEdgeStyle={&quot;edgeStyle&quot;:&quot;elbowEdgeStyle&quot;,&quot;elbow&quot;:&quot;vertical&quot;,&quot;curved&quot;:0,&quot;rounded&quot;:0};" vertex="1" parent="1">
          <mxGeometry x="1000" y="180" width="100" height="680" as="geometry" />
        </mxCell>
        <mxCell id="_mBmZssn0w3ArqIE2nXV-13" value="" style="html=1;points=[];perimeter=orthogonalPerimeter;outlineConnect=0;targetShapes=umlLifeline;portConstraint=eastwest;newEdgeStyle={&quot;edgeStyle&quot;:&quot;elbowEdgeStyle&quot;,&quot;elbow&quot;:&quot;vertical&quot;,&quot;curved&quot;:0,&quot;rounded&quot;:0};" vertex="1" parent="_mBmZssn0w3ArqIE2nXV-12">
          <mxGeometry x="45" y="80" width="10" height="520" as="geometry" />
        </mxCell>
        <mxCell id="_mBmZssn0w3ArqIE2nXV-14" value="MONEY SERVICE" style="shape=umlLifeline;perimeter=lifelinePerimeter;whiteSpace=wrap;html=1;container=0;dropTarget=0;collapsible=0;recursiveResize=0;outlineConnect=0;portConstraint=eastwest;newEdgeStyle={&quot;edgeStyle&quot;:&quot;elbowEdgeStyle&quot;,&quot;elbow&quot;:&quot;vertical&quot;,&quot;curved&quot;:0,&quot;rounded&quot;:0};" vertex="1" parent="1">
          <mxGeometry x="1175" y="180" width="100" height="680" as="geometry" />
        </mxCell>
        <mxCell id="_mBmZssn0w3ArqIE2nXV-15" value="" style="html=1;points=[];perimeter=orthogonalPerimeter;outlineConnect=0;targetShapes=umlLifeline;portConstraint=eastwest;newEdgeStyle={&quot;edgeStyle&quot;:&quot;elbowEdgeStyle&quot;,&quot;elbow&quot;:&quot;vertical&quot;,&quot;curved&quot;:0,&quot;rounded&quot;:0};" vertex="1" parent="_mBmZssn0w3ArqIE2nXV-14">
          <mxGeometry x="45" y="80" width="10" height="520" as="geometry" />
        </mxCell>
        <mxCell id="_mBmZssn0w3ArqIE2nXV-17" value="Client&lt;div&gt;&lt;br&gt;&lt;/div&gt;" style="shape=umlActor;verticalLabelPosition=bottom;verticalAlign=top;html=1;outlineConnect=0;" vertex="1" parent="1">
          <mxGeometry x="270" y="170" width="30" height="60" as="geometry" />
        </mxCell>
        <mxCell id="_mBmZssn0w3ArqIE2nXV-20" value="" style="endArrow=classic;html=1;rounded=0;" edge="1" parent="1">
          <mxGeometry width="50" height="50" relative="1" as="geometry">
            <mxPoint x="300" y="200" as="sourcePoint" />
            <mxPoint x="360" y="200" as="targetPoint" />
          </mxGeometry>
        </mxCell>
        <mxCell id="_mBmZssn0w3ArqIE2nXV-21" value="" style="endArrow=classic;html=1;rounded=0;" edge="1" parent="1" target="_mBmZssn0w3ArqIE2nXV-8">
          <mxGeometry width="50" height="50" relative="1" as="geometry">
            <mxPoint x="425" y="300" as="sourcePoint" />
            <mxPoint x="620" y="300" as="targetPoint" />
          </mxGeometry>
        </mxCell>
        <mxCell id="_mBmZssn0w3ArqIE2nXV-23" value="Richiesta di prenotazione viaggio" style="edgeLabel;html=1;align=center;verticalAlign=middle;resizable=0;points=[];" vertex="1" connectable="0" parent="_mBmZssn0w3ArqIE2nXV-21">
          <mxGeometry x="0.2025" y="-1" relative="1" as="geometry">
            <mxPoint x="-20" y="-21" as="offset" />
          </mxGeometry>
        </mxCell>
        <mxCell id="_mBmZssn0w3ArqIE2nXV-24" value="" style="endArrow=classic;html=1;rounded=0;" edge="1" parent="1">
          <mxGeometry width="50" height="50" relative="1" as="geometry">
            <mxPoint x="685" y="340" as="sourcePoint" />
            <mxPoint x="865" y="340" as="targetPoint" />
          </mxGeometry>
        </mxCell>
        <mxCell id="_mBmZssn0w3ArqIE2nXV-27" value="contatto hotel per conferma posti e&amp;nbsp;&lt;div&gt;giorni&lt;/div&gt;" style="text;html=1;align=center;verticalAlign=middle;resizable=0;points=[];autosize=1;strokeColor=none;fillColor=none;" vertex="1" parent="1">
          <mxGeometry x="670" y="298" width="210" height="40" as="geometry" />
        </mxCell>
        <mxCell id="_mBmZssn0w3ArqIE2nXV-28" value="" style="endArrow=classic;html=1;rounded=0;" edge="1" parent="1" source="_mBmZssn0w3ArqIE2nXV-11">
          <mxGeometry width="50" height="50" relative="1" as="geometry">
            <mxPoint x="854.9599999999997" y="370" as="sourcePoint" />
            <mxPoint x="685.05" y="370" as="targetPoint" />
          </mxGeometry>
        </mxCell>
        <mxCell id="_mBmZssn0w3ArqIE2nXV-29" value="PENDING" style="text;html=1;align=center;verticalAlign=middle;resizable=0;points=[];autosize=1;strokeColor=none;fillColor=none;" vertex="1" parent="1">
          <mxGeometry x="730" y="340" width="80" height="30" as="geometry" />
        </mxCell>
        <mxCell id="_mBmZssn0w3ArqIE2nXV-30" value="" style="endArrow=classic;html=1;rounded=0;" edge="1" parent="1" source="_mBmZssn0w3ArqIE2nXV-8">
          <mxGeometry width="50" height="50" relative="1" as="geometry">
            <mxPoint x="682" y="410" as="sourcePoint" />
            <mxPoint x="867.7" y="410" as="targetPoint" />
          </mxGeometry>
        </mxCell>
        <mxCell id="_mBmZssn0w3ArqIE2nXV-31" value="richiedo aggiornamenti" style="text;html=1;align=center;verticalAlign=middle;resizable=0;points=[];autosize=1;strokeColor=none;fillColor=none;" vertex="1" parent="1">
          <mxGeometry x="700" y="370" width="140" height="30" as="geometry" />
        </mxCell>
        <mxCell id="_mBmZssn0w3ArqIE2nXV-32" value="" style="endArrow=classic;html=1;rounded=0;" edge="1" parent="1">
          <mxGeometry width="50" height="50" relative="1" as="geometry">
            <mxPoint x="865.1799999999998" y="438" as="sourcePoint" />
            <mxPoint x="674.820909090909" y="438" as="targetPoint" />
          </mxGeometry>
        </mxCell>
        <mxCell id="_mBmZssn0w3ArqIE2nXV-33" value="APPROVED or NOT" style="text;html=1;align=center;verticalAlign=middle;resizable=0;points=[];autosize=1;strokeColor=none;fillColor=none;" vertex="1" parent="1">
          <mxGeometry x="705" y="408" width="130" height="30" as="geometry" />
        </mxCell>
        <mxCell id="_mBmZssn0w3ArqIE2nXV-34" value="PENDING" style="text;html=1;align=center;verticalAlign=middle;resizable=0;points=[];autosize=1;strokeColor=none;fillColor=none;" vertex="1" parent="1">
          <mxGeometry x="925" y="500" width="80" height="30" as="geometry" />
        </mxCell>
        <mxCell id="_mBmZssn0w3ArqIE2nXV-35" value="richiedo aggiornamenti" style="text;html=1;align=center;verticalAlign=middle;resizable=0;points=[];autosize=1;strokeColor=none;fillColor=none;" vertex="1" parent="1">
          <mxGeometry x="890" y="538" width="140" height="30" as="geometry" />
        </mxCell>
        <mxCell id="_mBmZssn0w3ArqIE2nXV-36" value="APPROVED or NOT" style="text;html=1;align=center;verticalAlign=middle;resizable=0;points=[];autosize=1;strokeColor=none;fillColor=none;" vertex="1" parent="1">
          <mxGeometry x="890" y="580" width="130" height="30" as="geometry" />
        </mxCell>
        <mxCell id="_mBmZssn0w3ArqIE2nXV-37" value="" style="endArrow=classic;html=1;rounded=0;" edge="1" parent="1" source="_mBmZssn0w3ArqIE2nXV-9">
          <mxGeometry width="50" height="50" relative="1" as="geometry">
            <mxPoint x="692.5" y="500" as="sourcePoint" />
            <mxPoint x="1047.5" y="500" as="targetPoint" />
          </mxGeometry>
        </mxCell>
        <mxCell id="_mBmZssn0w3ArqIE2nXV-38" value="" style="endArrow=classic;html=1;rounded=0;" edge="1" parent="1" source="_mBmZssn0w3ArqIE2nXV-9">
          <mxGeometry width="50" height="50" relative="1" as="geometry">
            <mxPoint x="688.75" y="568" as="sourcePoint" />
            <mxPoint x="1051.25" y="568" as="targetPoint" />
          </mxGeometry>
        </mxCell>
        <mxCell id="_mBmZssn0w3ArqIE2nXV-39" value="" style="endArrow=classic;html=1;rounded=0;" edge="1" parent="1">
          <mxGeometry width="50" height="50" relative="1" as="geometry">
            <mxPoint x="1040" y="530" as="sourcePoint" />
            <mxPoint x="685" y="530" as="targetPoint" />
          </mxGeometry>
        </mxCell>
        <mxCell id="_mBmZssn0w3ArqIE2nXV-40" value="" style="endArrow=classic;html=1;rounded=0;" edge="1" parent="1">
          <mxGeometry width="50" height="50" relative="1" as="geometry">
            <mxPoint x="1054.95" y="610" as="sourcePoint" />
            <mxPoint x="685.040909090909" y="610" as="targetPoint" />
          </mxGeometry>
        </mxCell>
        <mxCell id="_mBmZssn0w3ArqIE2nXV-42" value="contatto bike service per controllare disponibilita" style="text;html=1;align=center;verticalAlign=middle;resizable=0;points=[];autosize=1;strokeColor=none;fillColor=none;" vertex="1" parent="1">
          <mxGeometry x="730" y="470" width="280" height="30" as="geometry" />
        </mxCell>
        <mxCell id="_mBmZssn0w3ArqIE2nXV-43" value="" style="endArrow=classic;html=1;rounded=0;" edge="1" parent="1">
          <mxGeometry width="50" height="50" relative="1" as="geometry">
            <mxPoint x="679.5" y="330" as="sourcePoint" />
            <mxPoint x="425" y="330" as="targetPoint" />
          </mxGeometry>
        </mxCell>
        <mxCell id="_mBmZssn0w3ArqIE2nXV-44" value="richiesta presa in considerazione" style="text;html=1;align=center;verticalAlign=middle;resizable=0;points=[];autosize=1;strokeColor=none;fillColor=none;" vertex="1" parent="1">
          <mxGeometry x="440" y="308" width="200" height="30" as="geometry" />
        </mxCell>
        <mxCell id="_mBmZssn0w3ArqIE2nXV-45" value="" style="endArrow=classic;html=1;rounded=0;" edge="1" parent="1">
          <mxGeometry width="50" height="50" relative="1" as="geometry">
            <mxPoint x="679.1666666666665" y="670" as="sourcePoint" />
            <mxPoint x="1220" y="670" as="targetPoint" />
          </mxGeometry>
        </mxCell>
        <mxCell id="_mBmZssn0w3ArqIE2nXV-46" value="" style="endArrow=classic;html=1;rounded=0;" edge="1" parent="1">
          <mxGeometry width="50" height="50" relative="1" as="geometry">
            <mxPoint x="684.5866666666665" y="730" as="sourcePoint" />
            <mxPoint x="1225.42" y="730" as="targetPoint" />
          </mxGeometry>
        </mxCell>
        <mxCell id="_mBmZssn0w3ArqIE2nXV-47" value="" style="endArrow=classic;html=1;rounded=0;" edge="1" parent="1" source="_mBmZssn0w3ArqIE2nXV-14">
          <mxGeometry width="50" height="50" relative="1" as="geometry">
            <mxPoint x="955.4166666666665" y="760" as="sourcePoint" />
            <mxPoint x="679.9966666666667" y="760" as="targetPoint" />
          </mxGeometry>
        </mxCell>
        <mxCell id="_mBmZssn0w3ArqIE2nXV-48" value="" style="endArrow=classic;html=1;rounded=0;" edge="1" parent="1">
          <mxGeometry width="50" height="50" relative="1" as="geometry">
            <mxPoint x="1227.5" y="700" as="sourcePoint" />
            <mxPoint x="682.4966666666667" y="700" as="targetPoint" />
          </mxGeometry>
        </mxCell>
        <mxCell id="_mBmZssn0w3ArqIE2nXV-49" value="Contatto money service per approvazione pagamento" style="text;html=1;align=center;verticalAlign=middle;resizable=0;points=[];autosize=1;strokeColor=none;fillColor=none;" vertex="1" parent="1">
          <mxGeometry x="810" y="640" width="310" height="30" as="geometry" />
        </mxCell>
        <mxCell id="_mBmZssn0w3ArqIE2nXV-50" value="PENDING" style="text;html=1;align=center;verticalAlign=middle;resizable=0;points=[];autosize=1;strokeColor=none;fillColor=none;" vertex="1" parent="1">
          <mxGeometry x="920" y="670" width="80" height="30" as="geometry" />
        </mxCell>
        <mxCell id="_mBmZssn0w3ArqIE2nXV-51" value="richiedo aggiornamenti" style="text;html=1;align=center;verticalAlign=middle;resizable=0;points=[];autosize=1;strokeColor=none;fillColor=none;" vertex="1" parent="1">
          <mxGeometry x="895" y="700" width="140" height="30" as="geometry" />
        </mxCell>
        <mxCell id="_mBmZssn0w3ArqIE2nXV-52" value="APPROVED or NOT" style="text;html=1;align=center;verticalAlign=middle;resizable=0;points=[];autosize=1;strokeColor=none;fillColor=none;" vertex="1" parent="1">
          <mxGeometry x="895" y="730" width="130" height="30" as="geometry" />
        </mxCell>
        <mxCell id="_mBmZssn0w3ArqIE2nXV-55" value="" style="edgeStyle=orthogonalEdgeStyle;rounded=0;orthogonalLoop=1;jettySize=auto;html=1;" edge="1" parent="1" source="_mBmZssn0w3ArqIE2nXV-54" target="_mBmZssn0w3ArqIE2nXV-44">
          <mxGeometry relative="1" as="geometry" />
        </mxCell>
        <mxCell id="_mBmZssn0w3ArqIE2nXV-54" value="SINCRONE?" style="text;html=1;align=center;verticalAlign=middle;resizable=0;points=[];autosize=1;strokeColor=none;fillColor=none;" vertex="1" parent="1">
          <mxGeometry x="495" y="390" width="90" height="30" as="geometry" />
        </mxCell>
        <mxCell id="_mBmZssn0w3ArqIE2nXV-56" value="QUESTE RICHIESTE ASYNC SICURAMENTE" style="text;html=1;align=center;verticalAlign=middle;resizable=0;points=[];autosize=1;strokeColor=none;fillColor=none;" vertex="1" parent="1">
          <mxGeometry x="935" y="378" width="270" height="30" as="geometry" />
        </mxCell>
      </root>
    </mxGraphModel>
  </diagram>
</mxfile>
